<?xml version="1.0" encoding="UTF-8" standalone="no"?>
<!-- Uploaded to: SVG Repo, www.svgrepo.com, Generator: SVG Repo Mixer Tools -->

<svg
   height="512"
   width="512"
   version="1.1"
   id="Layer_1"
   viewBox="0 0 512 512"
   xml:space="preserve"
   xmlns="http://www.w3.org/2000/svg"
   xmlns:svg="http://www.w3.org/2000/svg"><defs
   id="defs1" />
<circle
   style="fill:#61acd2"
   cx="256"
   cy="256"
   r="242.87199"
   id="circle1" />
<path
   d="M 256,0 C 114.842,0 0,114.842 0,256 0,397.158 114.842,512 256,512 397.158,512 512,397.158 512,256 512,114.842 397.158,0 256,0 Z m 204.02,361.026 h -89.642 c 6.181,-27.569 9.8,-59.077 10.6,-91.897 h 104.35 c -1.942,34.133 -10.862,64.327 -25.308,91.897 z M 26.673,269.128 h 104.35 c 0.799,32.821 4.418,64.328 10.6,91.897 H 51.98 C 37.534,333.456 28.614,303.262 26.673,269.128 Z M 51.43,150.974 h 89.972 c -6.111,28.882 -9.67,60.39 -10.408,91.897 H 26.607 C 28.398,210.051 37.15,179.856 51.43,150.974 Z M 269.128,124.718 V 28.652 c 19.692,6.875 38.816,28.047 53.946,60.849 5.058,10.966 9.767,23.401 13.665,35.216 h -67.611 z m 74.612,26.256 c 6.46,28.882 10.226,60.39 11.001,91.897 H 269.128 V 150.974 Z M 242.872,28.371 v 96.347 H 175.26 c 3.898,-11.815 8.174,-24.25 13.232,-35.216 15.354,-33.288 34.687,-54.59 54.38,-61.131 z m 0,122.603 v 91.897 h -85.613 c 0.776,-31.508 4.54,-63.015 11.001,-91.897 z m -85.593,118.154 h 85.593 v 91.897 H 168.34 c -6.236,-26.256 -10.213,-57.763 -11.061,-91.897 z m 85.593,118.154 v 96.319 c -24.944,-8.623 -51.007,-42.493 -67.465,-96.319 z m 26.256,96.034 v -96.034 h 67.465 c -16.274,52.513 -41.208,86.939 -67.465,96.034 z m 0,-122.29 v -91.897 h 85.593 c -0.848,34.133 -4.826,65.641 -11.062,91.897 z M 381.007,242.872 c -0.738,-31.508 -4.296,-63.015 -10.408,-91.897 h 89.972 c 14.28,28.882 23.032,59.077 24.823,91.897 z M 444.79,124.718 H 364.097 C 359.36,108.964 353.692,92.722 347.134,78.505 338.61,60.024 329.043,45.456 318.623,34.543 370.411,49.232 414.799,82.708 444.79,124.718 Z M 194.27,34.43 c -10.879,10.942 -20.817,25.328 -29.403,43.945 -6.558,14.217 -12.228,30.589 -16.964,46.343 H 67.21 C 97.373,81.395 142.101,49 194.27,34.43 Z M 67.933,387.282 h 80.266 c 4.676,17.067 10.245,31.772 16.666,45.693 8.413,18.238 18.206,32.647 28.936,43.817 -51.55,-14.516 -95.806,-46.187 -125.868,-89.51 z m 251.655,89.243 c 10.013,-11.117 19.234,-25.659 27.546,-43.68 6.421,-13.921 11.99,-28.496 16.666,-45.563 h 80.266 c -29.791,43.323 -73.521,74.545 -124.478,89.243 z"
   id="path1" />
</svg>
